<?xml version="1.0" encoding="UTF-8"?>
<!DOCTYPE svg PUBLIC "-//W3C//DTD SVG 1.1//EN" "http://www.w3.org/Graphics/SVG/1.1/DTD/svg11.dtd">
<!-- Creator: CorelDRAW -->
<svg xmlns="http://www.w3.org/2000/svg" xml:space="preserve" width="43.3492mm" height="43.3492mm" version="1.1" style="shape-rendering:geometricPrecision; text-rendering:geometricPrecision; image-rendering:optimizeQuality; fill-rule:evenodd; clip-rule:evenodd"
viewBox="0 0 4334.92 4334.92"
 xmlns:xlink="http://www.w3.org/1999/xlink"
 xmlns:xodm="http://www.corel.com/coreldraw/odm/2003">
 <defs>
  <style type="text/css">
   <![CDATA[
    .fil8 {fill:none}
    .fil0 {fill:#373435}
    .fil2 {fill:#EC268F}
    .fil3 {fill:#D2E28B}
    .fil5 {fill:#A8518A}
    .fil6 {fill:#A8CF45}
    .fil1 {fill:#5CC6D0}
    .fil4 {fill:#51A8B1}
    .fil7 {fill:#373435;fill-rule:nonzero}
   ]]>
  </style>
 </defs>
 <g id="Capa_x0020_1">
  <metadata id="CorelCorpID_0Corel-Layer"/>
  <path class="fil0" d="M1530.99 2644.17c-215.79,-247.32 -601.24,-236.59 -829.21,-8.84 -548.85,548.32 -47.68,1794.32 928.35,1489.49 162.79,-50.83 241.86,-125.96 369.01,-222.88 98.79,54.01 162.35,179.19 449.96,263.17 474.47,138.58 996.19,-145.75 1093.56,-702.01 58.76,-335.75 -49.63,-669.5 -256.08,-848.92 -204.9,-178.11 -475.57,-202.75 -698.2,-68.91 -82.22,49.42 -103.92,110.2 -169.11,162.76 -161.13,-201.82 -107.35,-473.84 100.84,-682.89 60.58,-60.83 139.92,-112.14 184.32,-161.22 18.31,69.38 -32.11,123.14 33.36,260.82 39.58,83.25 77.78,123.92 172.61,186.72 169.39,112.18 384.23,150.55 567.39,136.99 152.41,-11.27 142.98,-38.08 108.65,-159.47 -37.81,-133.71 -75.08,-222.15 -123.37,-342.35 -44.76,-111.46 -116.1,-244.47 -241.99,-301.58 -101.31,-46 -201.14,-40.01 -275.87,-13.86 -115.28,40.34 -728.71,-287.56 -1274.48,724.37 -48.25,89.44 -90.75,205.22 -139.74,288.61zm105.44 27.3c233.13,12.13 209.79,-19.07 440.93,117.59 38.93,-9.12 67,-23.5 108.76,-32.11 42.26,-8.75 83.98,-6.73 121.51,-18.59 -63.55,-180.15 -157.09,-345.41 7.79,-617.08 149.82,-246.85 383.62,-352.84 429.65,-406.03 -477.75,-81.07 -919.05,423 -1108.64,956.22z"/>
  <path class="fil1" d="M1565.69 4030.35c80.12,-63.14 148.58,-99.33 224.67,-189.98 63.34,-75.45 137.37,-175.32 169.39,-278.06 -53.13,-32.52 -39.69,-53.41 -14.28,-111.37 23.87,-54.43 28.26,-85.07 66.84,-108.91 30.05,-108.68 -30.18,-262.59 -70.39,-338.99 -32.67,-62.05 -172.09,-222.16 -287.65,-217.62 -35.49,-7.77 -15.99,-4.31 -57.06,-2.23l-50.49 99.41 -78.36 -19.31 17.77 -102.24c-63.53,-19.05 -108.63,8.87 -159.94,19.09 -36.29,-31.91 -10.73,-29.04 -60.63,-57.39l-26.68 52.38c-127.05,6.46 -162.38,-42.45 -273.15,34.57 -112.87,78.48 -103.15,145.81 -175.8,230.08 -187.83,-29.98 80.59,-428.15 396.57,-370.14l34.69 -11.5c-62.38,-37.51 -95.69,-76.08 -177.45,-85.87 -146.09,-6.44 -349.16,165.3 -413.81,360.02 -177.23,533.78 140.15,1102.25 663.23,1137 79.04,5.26 233.06,1.18 272.53,-38.94z"/>
  <path class="fil2" d="M3067.63 3986.72c49.42,-55.49 217.69,-252.35 199.56,-335.21 -78.72,144.12 -318.87,364.02 -356.36,252.73 -23.7,-70.35 93.14,-79.58 193.15,-194.07 123.97,-141.9 85.52,-244.13 192.36,-192.56 31.99,-27.96 29.55,-107.86 30.07,-153.92 0.6,-52.42 -2.85,-93.57 -9.97,-145.17 -12.8,-92.85 -39.11,-196.19 -69.39,-266.4 -70.12,-162.55 -208.45,-324.57 -458.38,-372.25 -86.08,-9.32 -247.8,106.96 -298.25,220.88l78.49 94.89c-48.86,136.15 -123.05,-3.82 -170.28,-32.86 -58.83,-36.17 -184.99,-4.64 -235.45,0.86 19.15,80.7 146.03,161.99 131.5,444.17 -12.73,247.46 -120.64,336.18 -222.33,519.52 176.91,128.05 245.72,225.34 516.39,262.95 168.95,23.48 409.71,-19.75 478.89,-103.56z"/>
  <path class="fil3" d="M3327.78 2343.44c10.43,-43.32 -83.79,-295.12 -102.46,-336.21 -28.61,-62.97 -97.66,-265.33 -191.27,-288.46 -171.84,-8.35 -280.41,224 -197.28,376.08 76.63,140.17 301.23,242.33 491.01,248.59z"/>
  <path class="fil4" d="M1654.27 2785.42c115.56,-4.54 254.98,155.57 287.65,217.62 40.21,76.4 100.44,230.31 70.39,338.99 73.56,17.91 70.98,46.36 44.06,114.64 -24.71,62.69 -35.87,106.6 -96.62,105.64 -32.02,102.74 -106.05,202.61 -169.39,278.06 -76.09,90.65 -144.55,126.84 -224.67,189.98 289.39,-15.53 868.12,-623 524.18,-1081.3 -74.05,-98.67 -189.15,-165.68 -317.93,-177.37 -53.75,-4.88 -82.67,-7.62 -117.67,13.74z"/>
  <path class="fil5" d="M2788.67 2579.87c249.93,47.68 388.26,209.7 458.38,372.25 30.28,70.21 56.59,173.55 69.39,266.4 7.12,51.6 10.57,92.75 9.97,145.17 -0.52,46.06 1.92,125.96 -30.07,153.92 14.95,54.39 -1.48,71.78 -29.15,133.9 18.13,82.86 -150.14,279.72 -199.56,335.21 164.7,-14.87 454.77,-434.04 374.36,-867.9 -52.98,-285.9 -231.11,-542.79 -536.64,-557.44 -60.03,-2.88 -80.29,-4.76 -116.68,18.49z"/>
  <path class="fil6" d="M3034.05 1718.77c93.61,23.13 162.66,225.49 191.27,288.46 18.67,41.09 112.89,292.89 102.46,336.21l164.65 -5.12c-15.42,-94.99 -152.07,-459.92 -233.82,-544.35 -48.42,-50.01 -158.68,-101.41 -224.56,-75.2z"/>
  <path class="fil0" d="M1265.56 2722.75c-1.29,-2.18 -2.69,-5.55 -3.53,-6.73 -24.82,-35.21 -33.17,-33.7 -75.53,-46.38 -315.98,-58.01 -584.4,340.16 -396.57,370.14 72.65,-84.27 62.93,-151.6 175.8,-230.08 110.77,-77.02 146.1,-28.11 273.15,-34.57l26.68 -52.38z"/>
  <path class="fil0" d="M3267.19 3651.51c27.67,-62.12 44.1,-79.51 29.15,-133.9 -106.84,-51.57 -68.39,50.66 -192.36,192.56 -100.01,114.49 -216.85,123.72 -193.15,194.07 37.49,111.29 277.64,-108.61 356.36,-252.73z"/>
  <path class="fil4" d="M1043.74 2572.27c81.76,9.79 115.07,48.36 177.45,85.87l-34.69 11.5c42.36,12.68 50.71,11.17 75.53,46.38 0.84,1.18 2.24,4.55 3.53,6.73 49.9,28.35 24.34,25.48 60.63,57.39 51.31,-10.22 96.41,-38.14 159.94,-19.09 -5.07,-10.21 -5.57,-12.21 -13.33,-24.22 -81.65,-126.35 -311.81,-216 -429.06,-164.56z"/>
  <path class="fil0" d="M2920.18 2663.97c-128.17,-10.22 -257.51,43.83 -202.83,108.93 31.24,37.21 65.11,11.44 96.11,2.28 86.32,-25.51 151.48,12.92 190.76,4.44 85.11,-18.34 40.55,-105.73 -84.04,-115.65z"/>
  <path class="fil0" d="M1959.75 3562.31c60.75,0.96 71.91,-42.95 96.62,-105.64 26.92,-68.28 29.5,-96.73 -44.06,-114.64 -38.58,23.84 -42.97,54.48 -66.84,108.91 -25.41,57.96 -38.85,78.85 14.28,111.37z"/>
  <path class="fil7" d="M530.65 713.97l-3.06 32.26c-3.06,33.69 -16.54,61.05 -40.63,82.08 -23.89,21.03 -50.63,31.44 -80.24,31.44 -32.66,0 -59.82,-12.25 -81.25,-36.75 -24.5,-27.56 -36.75,-66.97 -36.75,-118.01l0 -295.43c0,-51.04 12.25,-90.86 36.75,-119.44 21.43,-24.5 48.59,-36.75 81.25,-36.75 29.61,0 56.35,10.41 80.24,31.24 24.09,21.03 37.57,48.79 40.63,83.3l3.06 30.62 -74.72 12.25c-5.11,-26.33 -9.19,-42.46 -12.25,-48.59 -7.15,-15.11 -19.81,-23.27 -38.18,-24.29 -22.26,0 -33.48,23.88 -33.48,71.86l0 295.03c0,46.95 11.22,70.43 33.48,70.43 17.35,0 29.6,-8.16 36.75,-24.5 3.06,-5.1 7.15,-21.43 12.05,-49l76.35 12.25zm227.91 140.88c-20.42,1.02 -35.32,-10.82 -44.51,-35.32l0 -252.76c0,-11.23 -6.12,-16.95 -18.58,-16.95 -22.66,0 -40.02,10.82 -52.47,32.26l0 237.45c-9.19,23.48 -23.89,35.32 -44.3,35.32 -19.2,0 -33.49,-11.84 -42.67,-35.32l0 -529.82c9.18,-23.48 23.47,-35.11 42.67,-35.11 20.41,0 35.11,11.63 44.3,35.11l0 189.88c21.44,-14.5 43.49,-21.64 66.15,-21.64 25.52,0 47.16,10 64.52,29.81 17.35,20 26.13,49.4 26.13,88.2l0 243.57c-8.16,22.46 -21.84,34.3 -41.24,35.32zm156.24 -143.94c0,42.06 10.41,63.09 31.03,63.09 18.79,-1.02 31.24,-12.86 37.37,-35.53 1.02,-1.02 2.65,-5.51 4.69,-13.88l82.49 12.45 -1.64 10.62c-2.04,33.89 -15.1,60.84 -39.4,81.46 -24.09,20.42 -51.04,30.63 -81.06,30.63 -33.89,0 -61.65,-11.84 -83.3,-35.32 -24.7,-27.56 -37.15,-66.56 -37.15,-116.58l0 -104.33c0,-42.06 8.77,-76.36 26.13,-102.9 20.42,-31.65 51.65,-47.57 93.71,-47.57 43.9,0 77.18,17.35 99.64,52.26 15.31,23.48 23.07,49 23.07,76.57 0,35.93 -11.23,67.17 -33.89,93.71 -22.67,26.54 -51.25,39.81 -86.16,39.81l-6.33 0c-8.17,0 -17.97,-1.43 -29.2,-4.49zm31.03 -172.11c-20.62,0 -31.03,21.44 -31.03,64.51l0 20.01c10.41,4.09 20.21,6.13 29.4,6.13l7.76 0c8.37,0 15.92,-5.11 22.66,-15.31 6.74,-10.21 10.01,-22.05 10.01,-35.33 0,-26.74 -12.87,-40.01 -38.8,-40.01zm401.86 67.78l-76.36 12.46 -6.12 -32.06c-4.09,-22.25 -16.34,-33.48 -36.75,-33.48 -19.4,0 -35.12,11.23 -47.37,33.89l0 235c-8.17,21.64 -22.46,32.46 -43.08,32.46 -19.39,0 -33.28,-10.82 -41.44,-32.26l0 -318.91c8.16,-21.44 22.45,-32.26 42.87,-32.26 17.35,0 30.22,9.39 38.38,28.18 22.46,-18.79 45.94,-28.18 70.44,-28.18 24.5,0 45.94,8.99 64.32,27.16 18.37,18.17 28.99,43.89 32.05,76.97l3.06 31.03zm276.5 0l-76.36 12.46 -6.12 -32.06c-4.09,-22.25 -16.34,-33.48 -36.75,-33.48 -19.4,0 -35.12,11.23 -47.37,33.89l0 235c-8.17,21.64 -22.46,32.46 -43.08,32.46 -19.39,0 -33.28,-10.82 -41.44,-32.26l0 -318.91c8.16,-21.44 22.45,-32.26 42.87,-32.26 17.35,0 30.22,9.39 38.38,28.18 22.46,-18.79 45.94,-28.18 70.44,-28.18 24.5,0 45.94,8.99 64.32,27.16 18.37,18.17 28.99,43.89 32.05,76.97l3.06 31.03zm180.13 439.37c-21.43,-9.19 -32.25,-24.91 -32.25,-47.16 0,-12.25 4.08,-23.28 12.25,-32.87 8.16,-9.6 12.25,-24.71 12.25,-44.92l0 -62.47c-18.38,6.53 -35.12,9.8 -50.43,9.8 -64.32,0 -96.57,-49.62 -96.57,-148.64l0 -212.95c8.16,-23.48 22.45,-35.32 42.87,-35.32 20.42,0 34.71,11.84 42.88,35.32l0 213.15c0,41.04 7.14,61.46 21.43,61.46 7.15,0 20.42,-5.1 39.82,-15.31l0 -259.3c8.16,-23.48 22.45,-35.32 42.87,-35.32 20.42,0 34.71,11.84 42.88,35.32l0 425.9c0,24.5 -5.11,47.98 -15.32,70.44 -15.31,28.58 -36.13,42.87 -62.68,42.87zm499.81 -191.1c-20.42,1.02 -34.71,-10.82 -42.88,-35.32l0 -147c0,-50.02 -12.86,-74.93 -38.79,-74.93l-37.16 0 0 221.93c-8.17,23.48 -22.46,35.32 -42.67,35.32 -20.42,0 -35.12,-11.84 -44.3,-35.32l0 -558.81 130.46 0c41.04,0 72.07,16.33 93.71,49 16.34,27.56 24.5,62.68 24.5,105.56l0 26.13c0,47.98 -12.25,85.75 -36.75,113.31 24.5,26.54 36.75,63.29 36.75,110.25l0 154.56c-8.16,22.46 -22.46,34.3 -42.87,35.32zm-42.88 -439.37c0,-43.49 -10.82,-65.33 -32.46,-65.33l-43.49 0 0 158.02 37.16 0c25.93,0 38.79,-22.25 38.79,-66.76l0 -25.93zm303.45 439.37l-142.3 0c-14.3,0 -25.93,-6.13 -34.51,-18.38 -8.78,-12.25 -13.06,-25.52 -13.06,-39.81l0 -478.98c0,-14.29 4.28,-27.56 13.06,-39.81 8.58,-12.25 20.21,-18.37 34.51,-18.37l142.3 0c20.42,9.18 30.63,24.5 30.63,45.93 0,21.44 -10.21,36.75 -30.42,45.94l-106.78 0 0 159.25 94.73 0c19.4,8.17 28.99,23.48 28.99,45.94 0,22.46 -9.59,37.77 -28.99,45.94l-94.73 0 0 160.47 106.78 0c20.21,9.19 30.42,24.5 30.42,45.94 0,21.44 -10.21,36.75 -30.63,45.94zm221.17 -439.57c-5.11,-27.16 -8.78,-42.88 -10.82,-46.96 -6.13,-16.13 -17.97,-24.3 -35.32,-24.3 -12.25,0 -20.83,8.58 -25.93,25.93 -3.07,9.19 -4.7,18.38 -4.7,27.56 0,34.71 27.16,85.35 81.46,151.7 54.31,66.35 81.47,120.87 81.47,163.74 0,31.65 -11.03,63.91 -32.87,96.57 -22.05,32.67 -52.48,49.01 -91.27,49.01 -29.6,0 -56.76,-10.42 -81.26,-31.45 -24.5,-21.03 -38.38,-49 -41.44,-83.91l-3.06 -33.69 79.82 -12.45c5.11,27.56 8.58,43.49 10.62,47.57 6.13,16.33 17.97,24.5 35.32,24.5 9.19,0 16.34,-4.7 21.44,-13.88 7.15,-14.3 10.82,-28.59 10.82,-42.88 0,-24.5 -13.07,-53.49 -39.2,-87.18 -25.93,-33.69 -51.86,-66.97 -77.38,-99.63 -27.56,-41.86 -41.44,-83.1 -41.44,-123.93 0,-18.38 2.65,-37.37 7.75,-56.76 17.36,-60.23 54.52,-90.24 111.68,-90.24 29.61,0 56.35,10.2 80.45,30.62 23.88,20.42 37.56,48.39 40.63,84.12l3.06 33.69 -79.83 12.25zm325.5 -155.78c20.41,8.16 30.62,23.47 30.62,45.93 0,22.46 -10.21,37.77 -30.42,45.94l-56.55 0 0 469.79c-8.17,22.46 -22.46,33.69 -43.08,33.69 -19.4,0 -33.28,-10.62 -41.45,-32.05l0 -471.43 -49 0c-20.42,-9.19 -30.62,-24.5 -30.62,-45.94 0,-21.43 10.2,-36.75 30.62,-45.93l189.88 0zm227.08 38.79c1.02,11.23 -0.82,21.43 -5.72,30.62 -4.9,9.19 -13.67,13.89 -26.33,13.89 -20.22,0 -30.42,23.48 -30.42,70.43l0 33.69 33.48 0c19.4,8.17 28.99,23.48 28.99,45.94 0,22.46 -9.59,37.77 -28.99,45.94l-33.48 0 0 282.36c-8.17,22.46 -21.85,33.69 -41.25,33.69 -18.17,0 -31.44,-11.23 -39.6,-33.69l0 -282.36 -12.25 0c-19.6,-9.19 -29.4,-24.5 -29.4,-45.94 0,-21.44 9.8,-36.75 29.4,-45.94l12.25 0 0 -33.69c0,-49 11.02,-88.4 32.87,-118.01 18.98,-25.52 40.83,-38.17 65.74,-38.17 25.72,0 40.83,13.67 44.71,41.24zm258.73 524.3c-8.16,21.44 -22.05,32.26 -41.44,32.26 -17.36,0 -30.63,-9.19 -39.82,-27.56 -22.46,18.37 -46.55,27.56 -72.07,27.56 -25.52,0 -46.96,-9.8 -64.31,-29.2 -17.36,-19.6 -26.13,-47.36 -26.13,-83.3l0 -238.67c8.16,-21.44 22.05,-32.26 41.44,-32.26 19.6,0 33.89,10.82 43.08,32.26l0 248.06c0,12.46 6.53,18.58 19.81,18.58 24.29,0 43.07,-10.82 56.14,-32.25l0 -234.39c8.17,-21.44 22.05,-32.26 41.65,-32.26 19.6,0 33.49,10.82 41.65,32.26l0 318.91zm117.45 12.46c-6.12,13.27 -21.03,19.8 -44.71,19.8 -24.71,0 -39.61,-6.53 -44.71,-19.8l0 -555.75c5.1,-13.27 20,-19.8 44.71,-19.8 23.68,0 38.59,6.53 44.71,19.8l0 555.75zm-3139.47 721.12c4.09,24.7 -4.08,41.85 -24.5,51.04 -7.14,3.06 -13.27,4.7 -18.37,4.7 -22.46,0 -38.79,-24.1 -49,-72.28 -7.15,-44.1 -13.89,-88.2 -20.01,-132.3l-62.68 0c-6.13,44.1 -12.86,88.2 -20.01,132.3 -10.21,48.18 -26.54,72.28 -49,72.28 -5.1,0 -11.23,-1.64 -18.37,-4.7 -20.42,-9.19 -28.59,-26.34 -24.5,-51.04l102.69 -519.2c11.23,-15.32 24.91,-22.87 41.24,-22.87 16.34,0 29.61,7.55 39.82,22.87l102.69 519.2zm-130.05 -240.51l-12.66 -82.69 -14.9 82.48 27.56 0.21zm385.31 -102.9c0,41.85 -11.23,77.78 -33.69,107.8 -22.45,30.01 -52.47,45.12 -90.24,45.12l-35.32 0 0 208.86c-8.17,22.46 -22.46,33.69 -43.08,33.69 -19.39,0 -33.28,-10.82 -41.44,-32.26l0 -561.87 125.76 0c40.84,0 72.07,16.33 93.51,49 16.34,26.34 24.5,61.66 24.5,105.35l0 44.31zm-83.3 0.2l0 -44.51c0,-48.18 -11.23,-72.27 -33.48,-72.27l-42.47 0 0 187.42 34.91 0c27.36,0 41.04,-23.48 41.04,-70.64zm200.75 375.47c-6.12,13.27 -21.03,19.8 -44.71,19.8 -24.71,0 -39.61,-6.53 -44.71,-19.8l0 -555.75c5.1,-13.27 20,-19.8 44.71,-19.8 23.68,0 38.59,6.53 44.71,19.8l0 555.75zm403.65 -13.89c-8.17,21.44 -22.05,32.67 -41.65,33.69 -19.6,1.02 -33.49,-9.6 -41.65,-32.05l0 -220.3 -53.9 0 0 218.66c-8.17,22.46 -22.05,33.69 -41.65,33.69 -19.6,0 -33.49,-10.62 -41.65,-32.05l0 -529.62c8.16,-22.46 22.05,-33.68 41.65,-33.68 19.6,0 33.48,11.22 41.65,33.68l0 217.44 53.9 0 0 -217.44c8.16,-22.46 22.05,-33.68 41.65,-33.68 19.6,0 33.48,11.22 41.65,33.68l0 527.98zm270.57 1.64c-8.16,21.43 -22.05,32.05 -41.44,32.05 -17.36,0 -30.63,-8.98 -39.82,-26.95 -22.46,17.97 -46.55,26.95 -72.07,26.95 -25.52,0 -46.96,-9.8 -64.31,-29.4 -17.36,-19.4 -26.13,-47.37 -26.13,-83.3l0 -4.7c0,-95.75 34.09,-143.53 102.49,-143.53 18.17,0 37.56,4.29 57.98,12.87 0,-38.8 -8.17,-61.05 -24.5,-67.18 -13.07,-3.06 -26.34,-6.12 -39.61,-9.18 -11.23,-9.19 -16.74,-21.44 -16.74,-36.75 0,-25.52 15.31,-38.18 45.94,-38.18 41.04,0 72.27,15.72 93.71,47.36 16.34,26.55 24.5,60.85 24.5,102.5l0 217.44zm-83.3 -86.78l0 -46.95c-21.44,-10.42 -37.16,-15.52 -47.37,-15.52 -19.19,0 -28.78,21.23 -28.78,63.9l0 12.66c0,14.5 8.57,21.24 25.93,20.21 21.23,-1.02 37.97,-12.45 50.22,-34.3zm355.1 86.57c-8.16,21.44 -22.05,32.26 -41.65,32.26 -19.6,0 -33.48,-10.82 -41.65,-32.26l0 -248.06c0,-12.46 -7.14,-18.58 -21.23,-18.58 -23.28,0 -41.45,10.82 -54.72,32.26l0 234.38c-8.17,21.44 -22.46,32.26 -43.08,32.26 -19.39,0 -33.28,-10.82 -41.44,-32.26l0 -318.91c8.16,-21.44 22.45,-32.26 42.87,-32.26 17.35,0 30.22,9.39 38.38,28.18 22.46,-18.79 46.55,-28.18 72.08,-28.18 25.52,0 46.95,9.8 64.31,29.2 17.35,19.6 26.13,47.37 26.13,83.3l0 238.67zm271.8 0c-8.16,21.44 -22.05,32.26 -41.44,32.26 -17.36,0 -30.63,-9.19 -39.82,-27.56 -22.46,18.37 -46.55,27.56 -72.07,27.56 -25.52,0 -46.96,-10 -64.31,-30.01 -17.36,-19.81 -26.13,-48.8 -26.13,-86.77l0 -147.41c0,-98.21 34.09,-147.41 102.49,-147.41 18.17,0 37.56,4.08 57.98,12.25l0 -168.65c8.17,-21.43 22.05,-32.25 41.65,-32.25 19.6,0 33.49,10.61 41.65,32.05l0 535.94zm-83.3 -88.4l0 -191.92c-21.23,-11.23 -36.95,-16.95 -47.16,-16.95 -19.19,0 -28.79,22.05 -28.79,65.95l0 156.6c0,13.27 6.53,20 19.81,20 24.29,0 43.07,-11.22 56.14,-33.68zm200.75 100.86c-6.12,13.27 -21.03,19.8 -44.71,19.8 -24.71,0 -39.61,-6.53 -44.71,-19.8l0 -555.75c5.1,-13.27 20,-19.8 44.71,-19.8 23.68,0 38.59,6.53 44.71,19.8l0 555.75zm82.54 -124.14c0,42.06 10.41,63.09 31.03,63.09 18.79,-1.02 31.24,-12.86 37.37,-35.53 1.02,-1.02 2.65,-5.51 4.69,-13.88l82.49 12.45 -1.64 10.62c-2.04,33.89 -15.1,60.84 -39.4,81.46 -24.09,20.42 -51.04,30.63 -81.06,30.63 -33.89,0 -61.65,-11.84 -83.3,-35.32 -24.7,-27.56 -37.15,-66.56 -37.15,-116.58l0 -104.33c0,-42.06 8.77,-76.36 26.13,-102.9 20.42,-31.65 51.65,-47.57 93.71,-47.57 43.9,0 77.18,17.35 99.64,52.26 15.31,23.48 23.07,49 23.07,76.57 0,35.93 -11.23,67.17 -33.89,93.71 -22.67,26.54 -51.25,39.81 -86.16,39.81l-6.33 0c-8.17,0 -17.97,-1.43 -29.2,-4.49zm31.03 -172.11c-20.62,0 -31.03,21.44 -31.03,64.51l0 20.01c10.41,4.09 20.21,6.13 29.4,6.13l7.76 0c8.37,0 15.92,-5.11 22.66,-15.31 6.74,-10.21 10.01,-22.05 10.01,-35.33 0,-26.74 -12.87,-40.01 -38.8,-40.01zm401.86 67.78l-76.36 12.46 -6.12 -32.06c-4.09,-22.25 -16.34,-33.48 -36.75,-33.48 -19.4,0 -35.12,11.23 -47.37,33.89l0 235c-8.17,21.64 -22.46,32.46 -43.08,32.46 -19.39,0 -33.28,-10.82 -41.44,-32.26l0 -318.91c8.16,-21.44 22.45,-32.26 42.87,-32.26 17.35,0 30.22,9.39 38.38,28.18 22.46,-18.79 45.94,-28.18 70.44,-28.18 24.5,0 45.94,8.99 64.32,27.16 18.37,18.17 28.99,43.89 32.05,76.97l3.06 31.03z"/>
  <rect class="fil8" x="-0.01" y="-0.02" width="4334.93" height="4334.93"/>
 </g>
</svg>
